<?xml version='1.0' encoding='utf-8'?>
<svg xmlns="http://www.w3.org/2000/svg" viewBox="0 0 100 100" fill="black" stroke="black" aria-hidden="true">
  <defs>
    <style>
      .st0 {
        stroke-width: 2.7px;
      }

      .st0, .st1, .st2 {
        stroke-linejoin: round;
      }

      .st0, .st1, .st2, .st3, .st4, .st5, .st6, .st7, .st8, .st9, .st10, .st11, .st12 {
        stroke: #000;
      }

      .st0, .st1, .st2, .st3, .st4, .st7, .st8, .st9, .st10, .st11, .st12 {
        fill: none;
      }

      .st0, .st1, .st2, .st3, .st4, .st8, .st9, .st10, .st11 {
        stroke-linecap: round;
      }

      .st1, .st9 {
        stroke-width: 2.8px;
      }

      .st2 {
        stroke-width: 3px;
      }

      .st3, .st4, .st5, .st6, .st7, .st8, .st9, .st10, .st11, .st12 {
        stroke-miterlimit: 10;
      }

      .st3, .st7 {
        stroke-width: 2px;
      }

      .st4 {
        stroke-width: 2px;
      }

      .st5 {
        stroke-width: .8px;
      }

      .st13, .st6 {
        fill: #fff;
      }

      .st6 {
        stroke-width: 2.3px;
      }

      .st8 {
        stroke-width: 3.1px;
      }

      .st10, .st12 {
        stroke-width: 2.5px;
      }

      .st11 {
        stroke-width: 2.4px;
      }

      .st14 {
        fill: #fdfdfd;
      }
    </style>
  </defs>
  <g>
    <g>
      <path d="M79.6,47.9c0-2.3-2.1-4.3-4.4-4.3h-4.8c0,0-.2,0-.2-.2v-3.2c0-.8-.7-1.4-1.5-1.4H28.3c-.8,0-1.6.5-1.6,1.5v20.6c0,1.7.3,3.4.9,5.1,1,2.8,2.8,5.1,5.3,7,0,0,0,.1,0,.2,0,0,0,.1-.1.1h-11c-.4,0-.7.2-.9.4-.3.3-.5.7-.4,1.1,0,.9.2,1.8.6,2.7,1,2.2,3,4.2,5.4,5.3,1.5.7,3.2,1.1,5,1.1h34.3c3.9,0,7.8-2.3,9.7-5.8.6-1,.9-2.1.9-3.2,0-.5-.1-1-.4-1.3-.2-.2-.5-.4-.9-.4h-10.9c0,0-.2,0-.2-.1,0,0,0-.2.1-.2,1.9-1.5,3.5-3.4,4.5-5.5.8-1.6,1.3-3.4,1.5-5.2,0,0,0,0,0-.1,0,0,.1,0,.2,0,1.5,0,3-.5,4.3-1.3,2.9-1.9,4.1-4.8,4.6-6.9.3-1.2.4-2.1.4-3v-2.9ZM76.8,50.3c0,1.3-.2,2.5-.5,3.7-.9,3.1-3.1,5-5.9,5.2,0,0,0,0-.1,0,0,0,0,0,0-.1v-12.5s0,0,0-.1c0,0,0,0,.1,0h4.7c.4,0,.9.2,1.2.6.3.4.4.8.4,1.2v2.2ZM23.6,76.4s0-.1,0-.1,0,0,.1,0h49.3c0,0,.1,0,.1,0,0,0,0,0,0,.1-.4.9-.9,1.6-1.6,2.3-.8.8-1.7,1.4-2.7,1.8-1.1.4-2.2.7-3.3.7H31.4c-1.6,0-3.2-.4-4.6-1.3-1.4-.8-2.5-2.1-3.1-3.5ZM61.7,71.2c-.6.4-1.2.7-2,1.1-1.6.7-3.2,1-4.8,1h-13.2c-2.9,0-5.8-1.2-8-3.2-1.1-1-2-2.1-2.7-3.5-1-1.8-1.5-3.8-1.5-5.8v-18.9s0,0,0-.1c0,0,0,0,.1,0h37.5c0,0,.1,0,.2,0,0,0,0,.1,0,.2v18.9c0,4-2.1,7.9-5.6,10.3Z" />
      <g>
        <path d="M50.1,18.3c.3-.2.4-.6.4-.9,0-.3-.1-.7-.4-.9-.2-.3-.6-.4-.9-.4-.4,0-.7.1-.9.4-3,2.8-3.3,6.1-.9,9.3,1.6,2.1,1.4,4.1-.7,6.6-.5.5-.4,1.4.2,1.8.2.2.5.3.8.3s.7-.2,1-.5c1.5-1.7,2.3-3.4,2.4-5.1.1-1.6-.4-3.2-1.6-4.7-1.6-2.1-1.4-4,.6-5.9Z" />
        <path d="M37.9,18.3c.3-.2.4-.6.4-.9,0-.3-.1-.7-.4-.9-.2-.3-.6-.4-.9-.4-.4,0-.7.1-.9.4-3,2.8-3.3,6.1-.9,9.3,1.6,2.1,1.4,4.1-.7,6.6-.5.5-.4,1.4.2,1.8.2.2.5.3.8.3s.7-.2,1-.5c1.5-1.7,2.3-3.4,2.4-5.1.1-1.6-.4-3.2-1.6-4.7-1.6-2.1-1.4-4,.6-5.9Z" />
        <path d="M61.7,24.1c-1.6-2.1-1.4-4,.6-5.9.3-.2.4-.6.4-.9,0-.3-.1-.7-.4-.9-.2-.3-.6-.4-.9-.4-.4,0-.7.1-.9.4-3,2.8-3.3,6.1-.9,9.3,1.6,2.1,1.4,4.1-.7,6.6-.5.5-.4,1.4.2,1.8.2.2.5.3.8.3s.7-.2,1-.5c1.5-1.7,2.3-3.4,2.4-5.1.1-1.6-.4-3.2-1.6-4.7Z" />
      </g>
    </g>
  </g>
</svg>