<?xml version="1.0" encoding="UTF-8"?>
<svg id="_레이어_1" data-name="레이어_1" xmlns="http://www.w3.org/2000/svg" version="1.1" viewBox="0 0 24 24">
  <!-- Generator: Adobe Illustrator 30.7.0, SVG Export Plug-In . SVG Version: 2.1.4 Build 114)  -->
  <path d="M19.4,17.7l-3-3c0,0-.2-.1-.3-.1s-.2,0-.3.1c0,.1,0,.3,0,.4l1,1,2.1,2.1c.2.2.2.5.1.7,0,.2-.2.3-.4.3,0,0,0,0-.1,0-.2,0-.3,0-.4-.2l-1.4-1.4-3.9-3.8c0,0-.2-.1-.3-.1s-.1,0-.2,0l-2.2,2.2-3.1,3c-.1.1-.3.2-.5.2s-.2,0-.3,0c-.2,0-.3-.2-.4-.4,0-.2,0-.4.1-.6l3.6-3.6c.1-.1.1-.4,0-.5,0,0-.1,0-.2,0s-.2,0-.3.1l-3.5,3.5c-.5.5-.5,1.2-.2,1.7.2.4.6.6,1.1.6s.6-.1.9-.4l5-4.9s0,0,.1,0c0,0,.1,0,.1,0l1.7,1.7,3.3,3.3c.2.2.5.3.9.3s.7-.1.9-.4c.5-.5.5-1.3,0-1.9Z"/>
  <polygon points="12.5 14.1 12.5 14.1 12.5 14.1 12.5 14.1"/>
  <path d="M19.2,4.6c0,0-.2-.1-.3-.1s-.2,0-.2,0l-4.5,4.5c-.1.1-.2.3,0,.4,0,0,.2.1.3.1s.2,0,.2,0l4.1-4.1s0,0,0,0,0,0,0,0c0,0,0,0,0,0,0,.1.2.2.2.4.3.8.3,1.6,0,2.3-.1.2-.2.4-.4.5l-4.1,4.1s0,0,0,0,0,0,0,0l-1.8-1.8s0-.1,0-.2c.2-.4.2-.9,0-1.4,0-.1-.1-.2-.3-.4l-3-3-2-2c0,0-.2,0-.2,0,0,0-.2,0-.2,0,0,0-.1.2-.1.2,0,0,0,.1,0,.2l1.5,1.6,3.4,3.4c.2.2.2.5.2.6,0,.2,0,.4-.2.5-.1.1-.1.4,0,.5l2.4,2.4c0,0,.1,0,.2,0s.2,0,.2,0l3.3-3.3,1.2-1.2c.3-.3.5-.6.7-1.1.4-1.2.2-2.5-.7-3.4Z"/>
  <path d="M18.9,5s0,0,0,0c0,0,0,0,0,0,0,0,0,0,0,0h0Z"/>
  <path d="M10,12.9c-.4,0-.8-.2-1.1-.4L4,7.6c0,0,0-.2,0-.3,0,0,.1-.2.2-.2,0,0,0,0,.1,0,0,0,.1,0,.2,0l2.3,2.2,2.7,2.7c.1.1.3.2.5.2s.1,0,.2,0c.1,0,.2,0,.4-.2h.1c0-.1.1-.1.2-.1s.2,0,.2.1c0,.1.1.3,0,.4-.1.1-.3.2-.5.3-.2,0-.4.1-.6.1h0Z"/>
  <path d="M9.5,10c0,0-.2,0-.2,0l-2.4-2.4-1.3-1.3c-.1-.1-.1-.3,0-.4,0-.1.2-.2.3-.2s.1,0,.2,0l3.8,3.7c0,0,.1.2.1.3,0,0,0,.2-.1.2,0,0-.1,0-.2,0Z"/>
</svg>