<?xml version='1.0' encoding='utf-8'?>
<svg xmlns="http://www.w3.org/2000/svg" viewBox="0 0 100 100" fill="black" stroke="black" aria-hidden="true">
  <defs>
    <style>
      .st0 {
        stroke-width: 2.7px;
      }

      .st0, .st1, .st2 {
        stroke-linejoin: round;
      }

      .st0, .st1, .st2, .st3, .st4, .st5, .st6, .st7, .st8, .st9, .st10, .st11, .st12 {
        stroke: #000;
      }

      .st0, .st1, .st2, .st3, .st4, .st7, .st8, .st9, .st10, .st11, .st12 {
        fill: none;
      }

      .st0, .st1, .st2, .st3, .st4, .st8, .st9, .st10, .st11 {
        stroke-linecap: round;
      }

      .st1, .st9 {
        stroke-width: 2.8px;
      }

      .st2 {
        stroke-width: 3px;
      }

      .st3, .st4, .st5, .st6, .st7, .st8, .st9, .st10, .st11, .st12 {
        stroke-miterlimit: 10;
      }

      .st3, .st7 {
        stroke-width: 2px;
      }

      .st4 {
        stroke-width: 2px;
      }

      .st5 {
        stroke-width: .8px;
      }

      .st13, .st6 {
        fill: #fff;
      }

      .st6 {
        stroke-width: 2.3px;
      }

      .st8 {
        stroke-width: 3.1px;
      }

      .st10, .st12 {
        stroke-width: 2.5px;
      }

      .st11 {
        stroke-width: 2.4px;
      }

      .st14 {
        fill: #fdfdfd;
      }
    </style>
  </defs>
  <g>
    <g>
      <path class="st9" d="M15,70.5h70" />
      <path class="st9" d="M21.6,47.4v-21.6c0-3.5,3.5-6.4,7.7-6.4h41.4c4.3,0,7.7,2.9,7.7,6.4v21.6" />
      <path class="st9" d="M28.6,47.4v-6.8c0-1.1,1.2-2,2.6-2h14c1.4,0,2.6.9,2.6,2v6.8" />
      <path class="st9" d="M52.2,47.4v-6.8c0-1.1,1.2-2,2.6-2h14c1.4,0,2.6.9,2.6,2v6.8" />
      <path class="st9" d="M15,80.6v-26.2c0-3.9,3.1-7,7-7h56c3.9,0,7,3.1,7,7v26.3" />
    </g>
  </g>
</svg>