<?xml version='1.0' encoding='utf-8'?>
<svg xmlns="http://www.w3.org/2000/svg" viewBox="0 0 100 100" fill="black" stroke="black" aria-hidden="true">
  <defs>
    <style>
      .st0 {
        stroke-width: 2.7px;
      }

      .st0, .st1, .st2 {
        stroke-linejoin: round;
      }

      .st0, .st1, .st2, .st3, .st4, .st5, .st6, .st7, .st8, .st9, .st10, .st11, .st12 {
        stroke: #000;
      }

      .st0, .st1, .st2, .st3, .st4, .st7, .st8, .st9, .st10, .st11, .st12 {
        fill: none;
      }

      .st0, .st1, .st2, .st3, .st4, .st8, .st9, .st10, .st11 {
        stroke-linecap: round;
      }

      .st1, .st9 {
        stroke-width: 2.8px;
      }

      .st2 {
        stroke-width: 3px;
      }

      .st3, .st4, .st5, .st6, .st7, .st8, .st9, .st10, .st11, .st12 {
        stroke-miterlimit: 10;
      }

      .st3, .st7 {
        stroke-width: 2px;
      }

      .st4 {
        stroke-width: 2px;
      }

      .st5 {
        stroke-width: .8px;
      }

      .st13, .st6 {
        fill: #fff;
      }

      .st6 {
        stroke-width: 2.3px;
      }

      .st8 {
        stroke-width: 3.1px;
      }

      .st10, .st12 {
        stroke-width: 2.5px;
      }

      .st11 {
        stroke-width: 2.4px;
      }

      .st14 {
        fill: #fdfdfd;
      }
    </style>
  </defs>
  <g>
    <path d="M81.3,26.6H18.7c-.7,0-1.2.4-1.2,1.1v44.6c0,.7.6,1.1,1.3,1.1h62.5c.7,0,1.2-.4,1.2-1.1V27.7c0-.7-.6-1-1.2-1.1ZM80,64.3l-10.2-8.1-7.1-5.7,4.1-3.6,7.9-6.8,5.3-4.5v28.7ZM20,29.2h60s0,3.1,0,3.1l-9.5,8.2-6.7,5.8-10.1,8.7c-2.3,1.8-5.7,1.7-7.8-.1l-7.5-6.5-6.8-5.9-8.9-7.7-2.7-2.3v-3.3ZM20,35.8l2.9,2.5,4.6,4,4.6,4,4.9,4.2-8.9,7.1-8.1,6.5v-28.4ZM80,68v2s0,.7,0,.7c0,0,0,0,0,0H20s0-3.5,0-3.5l19-15.1,5.1,4.4c2.1,1.9,5,2.6,7.8,1.9,1.3-.3,2.6-.9,3.6-1.8l5.3-4.5,13.7,10.9,5.6,4.4c.1,0,0,.3,0,.4h0Z" />
  </g>
</svg>